<mxfile host="app.diagrams.net" modified="2023-07-09T20:21:16.651Z" agent="Mozilla/5.0 (X11; Linux x86_64) AppleWebKit/537.36 (KHTML, like Gecko) Chrome/114.0.0.0 Safari/537.36" etag="3-76w4FPKuLB0rB-C_Y6" version="21.6.1" type="device">
  <diagram name="Page-1" id="boszgkN6YfH0z1TDY4Sf">
    <mxGraphModel dx="2039" dy="1116" grid="1" gridSize="10" guides="1" tooltips="1" connect="1" arrows="1" fold="1" page="1" pageScale="1" pageWidth="827" pageHeight="1169" math="0" shadow="0">
      <root>
        <mxCell id="0" />
        <mxCell id="1" parent="0" />
        <mxCell id="UJpCSdv4WbmAOnBCemWf-1" value="" style="shape=image;verticalLabelPosition=bottom;labelBackgroundColor=default;verticalAlign=top;aspect=fixed;imageAspect=0;image=data:image/png,iVBORw0KGgoAAAANSUhEUgAAAKsAAACuCAIAAADGR2r9AAAACXBIWXMAAA7EAAAOxAGVKw4bAAAUaElEQVR4Xu2df0BTVf/HzwhsKNBAUcifU8yGkg7zB/iTmUmjUsE0WTwUo+zb0CxGiuBPRvkDzAp8UkGfUGZqoGKstJyaAgo6TBGeJ7EZKkxRNkXZVdR9/wC2swvOKffeTc55/eU596pn977v53zO59z7+bCCJo4BGIRxvH79OrkPgxKOXZ1YKZu2kbsxyOBA7sAgBlYA6mAFoA5WAOpgBaAOVgDqYAWgDlYA6mAFoI4juaMVr776KrkL80xx8uRJchcEtgGo83gb0ITBYCB32QgWi2X8Mx6VZeBRPQpsA1AHKwB1sAJQBysAdbACUAcrAHWwAlAHKwB1mFAAcSw9ys+dZcLZby9BPolJqkt/ksVEvubv4+Xe2YnFcnZ27eM7OFgUvUp+qNpmA3tQVfSTLGZmUMuoOrt36e87IkQ0N1WuvEY+mUJYE/kvW35XuGlf4CnjXI3qw0tiPlqrOH8P7mUP2aM9O5UNd1lPu6JvBt1fX0tmJMrP6slHmnHjDo3P2Bcn6P0c+Yhl2jWqRs2JJHHEKtJVgniBNzYxLVsq6EM+8BiaRmW7fYHTmdIA/6CVj/5hTEOUxQsDYx99+wEAt9R/xof0iVUw9xFFozovIkCQZPEq3aw4FhfSdz4to6JHAY2a41+GvRIYnXpKRz5kOxoV0tA1RTfI3a0hwL9jpv/K0MgvrxJF7bjYQO5uDV2jokUBV5KFkxJyTY9az4DXX+HAJ9gAg3rz0ozzD6GeIaEL9qoqNdpbVeWntiZM6wUduqc+lp5dBXXQxVX5si9hUbId30rYfLi8ulZ77S/VwS/D/ZxNx8A99bENOZSPihYFELf0LaJmd4pIOahSykY/b3YG85TJt6vumpqegoR9OSvf5g/owXHtzfN/T7Y7K/YVeCPthHJXPdSkhzu7s7fDU9KbKcf3yD6YwPPuxvEcyBfEZyvXCLtCx8FJ5eFGuE0BtCigmb6CyFyVNitW0P0pnT4KeVhQWAIbgKmSRf2gJgBgTNhUb6hJ1FRchZq0QKj+KDDZfxZnSLR4uPkN6fauaAqsy9u6f25CTSqw9v2AJ8PJ3fuDtK0pkkke5CO24p6faMVagbHpNlHQGToKAACA4+EBQHVLq5FweAAfpQO2/+JDhfOa158GJ06fIa0eFVevns4AQG7CwydcpDwWWhTQJ05R2Y3T6hLbEvaY8FjLn8nrK8ouQE22d28z+0sLXXj8AHKfOdfUF2AvsS9v1AtQkwpoUYBTN44Tuc/eub4lfQ88JQ/iT7S5ATPoSr5K/dXUZoN3RMFUz9u0KODZoyz9oyVK2CcHs0XjqL7W1tBYo7l8V++g1/1TXvhrVvo3eRUmEzBSsnsuHzqXGrACALiQO3dq7G7Y8x8s3hbFg9pM8bAiXcj/7DS0ZmmGDaYn7t2Q8LYb+UD7QV0BhnNy8VTxlr+hi96FJ1wnE7maOmyJG3fUTPGHUeLZAV40+VW2sHR2w93DyWGTRFsuQLtBTl49vsnZ9Zqt41dGbqlP/JASv1Dy2ZaiS/SsTdBVwFV59Pg3EnfDi/5O3D7fKv4W82h62p6SRl3tH7kbowL7TJZuryUfbD9oKoC49E3YuIjMYngruCs/dMfBfz7m2/L2O/DmlxIGg8Gg19f/rTqQkTDbB4oQHEoNj0g9Bce1qABBBRDnV4UFxOaa7RH4hK74XZkzjQt12RQ224XLnyyWyY/lSOFBKVMifqF4cwg5BVxPFwUlKK7Ac2pQrLwwZ/Ewu5n7YXoIF0YFmMxSo6bidxV0mALQWgs0KmIEn+VCt58NwlNUmyS2Mf16zdki1QVNjfa6TlNbUwv8w5PCW3+l29UL3q4AQKO5DkA3s652gZICLsojP0g/C++tRWZWZIa/THWk3Vpu5i99PXq3UY6uAbciwzN84DMAAODKZbVZm82mVq7IzAIGTd6nn2+HX7ibIDu60Xa3HwDQPXC8H7RpXl+UuVxOXvLdUK7LKjV7f8SHS60CkLEBCpn0Z2jl5+Q1TCToUl5aauoiwXb05vr1aLVZRyEOvAjRmITTStMN3ibm3VCtmCOc8DK3yz3NpWLl9pSULbAJ6MQNnUhxYJiGN0UNuv2fCJefNuurV5eWXTWtvRx9A0ZAAc77roIFP8vCOpl6LPA072QadHnT+k3Ne8Kt9QUHDStNG8qWeZpRAQBuKpeMECadbx0GfgRvppXvk1gfr7bmTVFabIDuf6qi45Z+1f3yoiK47el99fEfurcHQqu12WvglnhBsGJnallwjFlg6lEMDP9u/RPcfitBxg+wW4ZJfirIkU20PLuzHd9K2H4kO6Y3+UD7ccQSsDkOA0ITDgk/Kcjduiv/4PHSc5Xq6puEHrBdPb27+/CGjRQEzxKFj6BrZ4gl4L+8mlo/gGaecsalGXselWU/AJsA1MEKQB2sANTBCkAdrADUwQpAHawA1MEKQB2sANTBCkAda/cG4ain/YBH1X6wDUAdrADUwQpAHWv9AHvb8WwCj8oy1ngk2AagjoPBCplgOjDYBqAOVgDqYAWgDlYA6mAFoA5WAOowqoD7OdEvPccyY/mjP92knG2iLub/uSUWKsl/nX4eVBXlLIueNcbXp5tzZydnp+7eL40KmRGXnltOcd4QGGtjghRwUxkfl2mWu4VZDDoar2N7Mej+/FoSQSp+Uqs5X6s4X6zISZdx47OLFwsoTBxhhDEbQJStkK43z4XAMHW3teQuO8GgK44TTrJQ/ESvUS8J8VxlnkiAIpiyAaWpMem0/ADr0WkJaADsniP4vR9d9OBhL3dyF23clktC1z22+AkBkiXzpxVuHEQ+0E4YUUCj+of5a45Y+pycCcxsgCs/bGfhN/1MHTbjpnLFQjmc2qhThOxHqWhif/adM4oNn0tkJ1omr/qiTWmKdd8Jqf2ElIlZ4E5mzOcFLdkb+HyzUh4MQmghBTzn7kF1mvano2FravplqB2dfT4rdvorXu4unF6B4Ul7M6OM43Rkg/JSyvMJ0m8DruTOW6Koa9K4Cz86Luz8e6XABtunhPYOlESiE8fTxdSyGQbNrp0HTXNTV6EsKdSspFyP0KQfs98A3H4DuYP7ejnTcLto+CdhDLqji2I3G3OhimXf8krfgE9gDIMONgGgs3N3G+aQMnJNeeAYNDtOFs3xMrWaeDE4fAa5j0pongUOy2K2Xmz+88DwjUuFzo16PdV2zCoMWi2cP/4FjtEE3L2t02g0dTZxU04XlpjmRDYYF0DHes8ydNqAhtIvP00702Twnbz8v0r9kDn/uhX3CX09dJNd3D2qi7LXpKzbozhZRQAAgCOb4xs4PlS8cG54AFPVRRoqKq4YnwcWu/8AbwDA/eqi3dtzfjupvnKTeODK6csLHBcmes+PrpSnNCrg8lpJ8tmWix4q2x3WysAxilZbB7WqsmOGJ5bA6QXvE7ozyrwzyryMzOis7E1BTIy2pqra5AR08h7SlTizWvTeMqhUIwAAyDeuSIz4QFbwtSSQhgoTtM0ClenzVhc1/zxvYXKK+Elr5lJMo64O9gMuVZjdfpjLyoxQYeQJJnKPVd8wC1Kx0sOCFpFuPwAAAIMObI4ZMz35AA0RFXoUYNDkxSY1121hccDSlEVwRU+bQBBPEBHUlWZ9krjfQiFgiiDqoUD13Yq9/1E2L5raRCmb8lXLQ0UdtCjg/s5EUwJPQeLJDylPgvfkaLV6UhxirGT1/vLLtw2GBm3lrxmxw80n2tLMj/bQvY9AgPutlsW9BOLswr90ekODtvKXNMlgeFQE2JSSSnX1aRr8gJvK+PiWHSD3gDnrJKQ6mrbBmRsUJX6xxe261yNg/nKxf3MWU86AKeKUAN/Oo4OSKlocF4Ouap/i+sxwep1zR3NVuvDDf87PGNqUypY9IFiS5uetHxm22VgH86oiQ6lbPJNKr5ByBRBlS4w7QGwwL3Vt6zqaNqGnMC5DSO6EcQtY9nnI+g9zTfH5s6qTD8Mpr+8HwWa7cgCA0om+Kf2m+fa30DN00Xv8zauNe+hEVYkKzBTAp7QTqn9fSWrMhpYdIH/J/i+g6gh2j8PYwCHw9bhWU0lzAPvFrubr45d5rU3OgJH+ZsVPNRpqXQGKFXDjYH6JcdWtSp3S+pWMkcnF8F9Y5t/cPzbZUtpDZnDhdIWjVQ+Aw32oSQPcl/o//glxYXvAd+k+XIWYAihWwLMB8YiVXq0G3qMBbu50R44dhvJ9YDNzUd3G3b2trYN16YIrTDwFBs3+/wuZPNp/sI+3hwuL9YLv9LaW+w1HlGVw24c3mO7L80rgeDj+eFiR0yoYcKFAZfbqQD/LOaifGIo9wee9fYeOJnfCPFevVp2DZrLevICeHACAdpBXF9NZVMPidG449fsJo8+l3vNV5n9zJGYFRq7kLlgLFXsAAEwMpH0V20UwM6RfWtbF5ubF7H99KwlbAJU9upr75Y7/GlvAyWv0aIoHRXFucZfIjMJIcqcZJYmjYFdAnF24lOKiGW3BHhc+Y+C2dNNbinulftNrNsaKpgz1dtFrKw/KU5bLtl+C/oaHIF7EyMBiokfKE4ubHQ4CLAkb8zDlP3NCh3oQdSdyv/5UYloKAgD6h0nHUby2otgG2C+vxya9tu3dA8YyI8T9fclR+5LhUyDY4IuURGbimK9K0qKyJ25sqTF+T316UdiwRQA4AkDyQ504rvGxVlZisR5qTYAdw+LO2iyXDLLmAWIDcWaFlKkKdCzOiK+zUyf0IPeTlyFsEJlZFskl9bYfZBQAAOgpTDuSnz7NYllhD17A2vx/MpitQdaZ/3HeIfn7fI9H/afOXgOX5FR9b/76EEUgMws00UPwye7yd4tzt8lzTNU8HNmdvbm+PP6o18NEEaGMvRxghhtv9hbVtJjcjC05+44Vnausqb5LOLp79fPxHy0Qvi0Wv8O1xno9DaxJ/rxVG7eSuyFwjRFrsOdR4RojGEtgBaAOVgDqYAWgDlYA6mAFoA5WAOpgBaAOVgDqYAWgjrX7AnDU037Ao2o/2AagDlYAlRjsEvIozcEKQB1r/YDHSokx7Hkf9lkE2wDUwQpAHawA1MEKQB2sANTBCkAdrADUwQpAHeoVcGNlYOu8ERZxZm1gtPCA/lTuJmn022P9fbzcnZ1ZLCdntxf7+4wPCVuYKldpyGd3dKyNCXYQ6kq3SMTSXaXmSduI+hp1fY36wlFF7qrEue8kbt6QMNWG6U+ZhXobYL/cKloXHBT1I+n2kyDqdiVOC5buuUU+0FFBxwYQZcvFCSXGr8cBAAAMFc4axfV8qP2rUHEAruZUnDo9SXhnjcDSN6YdBeoV0FWcrQrWtZEPB+LmDknIypb0mC68OWOp/yiazB3lhk0t3+gDAADbaWl+9bKW2k0GXXGcMCgVytj5Y2bWCsHHzsZ2h4V6BQBP7iBPcp8ZV3PFWdC1lqSsHQwdpYkzhX/chpp9QzMXQKW7WJyRi6Wz14dlGtP41JYWlIOPhxvP6LAw7gcYdEe/iDVlRhkYvnEBI8a2TncD/q0+/q+Snm9X3oiXoMpTD7Xn6U4qax8wrgBFoqnmBIvjmiBjqOiABzlXYGvMEg87uHenMner/cKsAhqKlsRlNNecAACMlx6KoN8DaIKUt61S9QdccgQAUF9R9j+oBIUXX+hranVgGFXAldWxqcbUzc/zwmSxzCWd7iL8dC6U4vZy7sfJyipj06ArW5Gy3ZTLjw0+lP4LATcQ0OIJPorKzLlrIQfwncS1Y+nKjNImPnGZ6UVBH+xvyipIgFWT+v4imDWa5/lQe6lY+dsZKMthiOxoHFOZpGwNUwow6A4sTWiuOQEAcOHPWRhOR14kS3Tmvb+vqJ9M+sV3uSVN5SbOKHecMasw7fAif2yMbOPnwkFUJ22zW5iywsdTFu+E0qjPSJQxsAJsjRN31NuiiNlCnzYfcDfu8LeEM8bwLFSj7XgwogCDJm9lWkvaTACe582eH9o6jTrtNGr2zw3sNSps3npFZZsRq1vqkg3J8yb4eorSC9o8oSPCiAJOZyYroHDsZMnioaYWQxh0JfMFoWlFpk2BN2IzCv6+QRgMDdrLR7KTJhszNhMN8pixkZn/bWvF2PFwoP81d6Lk+wyTAWBxvN4XUZwc2RqOyqL/DUWFRyX8uidFHMj1eB4AZ07P8eGJP+cnD4Os/97EmT8jERKi3wbcUHy/46Kp2Ue4VGiDUEtJdo4pDgHYICpmCsnX68SbN2eSyT1o1Jz9SUF1VSd7hHYFPNiXvRfekJscZoN1tkGtUtWYmp28Jw1uo6Ckw0u8nvD1qCivsEmBXGahWQEGXf7ug6YCCSyOVzAjuwAkGnV1t83qCrtYswpuIKDVS4eFZgXcKsz7DbIAbv6RY2wwBQAnjocLNMffqym60kaNEVBdY1bPxY3dKuF3B4RmBfyp/AN+9nwCQrpDTcZgefsONCvdeO2X1nM8cfS3QrN6LgN9eTRfHnuA3p+oLy411dYGAPj5M7cRYAY7YOqknnDu9izpmz/CL4yAqzulUvlFU5vFGRgMvUDQcbFmPnx6ys6fM4us+FBcJcl6HKdLpX45n51usUj31Cdm+3utCQwaxvV8Tl/7Z9HvxeZ1vvji795pw1vseNCpAINOcwleUrOde3lDTWbpxJ+/Nb04OHr7FWMXUa9S5qmgc4z0Ekh/kJGXix0UWo2ytrrWrD2AYws30MgQsfxIPhT7axM2mBy7Xpm/xk6K5dIPrTaA0MMeN4t9x9nWl3WAMPFAuaQgd+uu/IPHS89drKm+odMDtqO7dz8f3rCRgcLp4bMmWJZIR4P1mj9vJa4x0m6aRmU/44E5deoUuQuC1lkA8wyAFYA6WAGogxWAOg6A/hcEMPYMtgGogxWAOlgBqIMVgDpYAahj7b4AHIu1H+xzVM8W2AagzuNtgOXa5RgYy3sw9gm2AaiDFYA6WAGogxWAOgx8OYqxa7ANQB0HgLeH0QbbANTBCkAd1uThvnWA+S/6MfYCtgGo8//15H9k6IB9JAAAAABJRU5ErkJggg==;" vertex="1" parent="1">
          <mxGeometry x="461" y="470" width="171" height="174" as="geometry" />
        </mxCell>
        <mxCell id="UJpCSdv4WbmAOnBCemWf-2" value="" style="shape=image;verticalLabelPosition=bottom;labelBackgroundColor=default;verticalAlign=top;aspect=fixed;imageAspect=0;image=data:image/png,iVBORw0KGgoAAAANSUhEUgAAAKsAAACuCAIAAADGR2r9AAAACXBIWXMAAA7EAAAOxAGVKw4bAAAUXElEQVR4Xu2df1xT1f/HzxDsoqADRSF/TjEdSjrMH+BPZhaNSgXT3OJDOUq/Dc1ipAb+SEf5A8xK/KSCflOZqYGKsdJyaioo6DBF+HwSm6HC/MWmKLuKeT9/8GPnXmAOuHdDz3n+xXmf68Oze173fX7d+37zJr48DmAQxtlgMDBtGJRw7uTCS9y0nWnGIIMT04BBDKwA1MEKQB2sANTBCkAdrADUwQpAHawA1MEKQB1npqEeL730EtOEeao4ffo00wSBfQDqPNkHVENRFNPkIHg8Xt3fuFXWgVvVGNgHoA5WAOpgBaAOVgDqYAWgDlYA6mAFoA5WAOrYQwHk8eSZ/h48C67++0jmRfakNP9HVXTkywG+3h7tXHg8V1f3nn4DQ2RRK9WHSx3WsH9Kcn5URU8Lrm1VO4/2ffyGhcrmJKm1N5gXswhvvGiA9XeFq88FmrnPVaU/sjj6gzWaiw9hKzFor/H8JAI22U6Ldt8o059fKabGq8+bmTU1dBAMXpiyP1bcow2zxjotalWV4dRyecRKxl2C6CgcHb8uTSnuyax4AtWtcty5wNlUZWBA8IrGf5i9IQsWSoJiGu9+AMBd/R8LQ3vGaG4xKzijSp8ZEShebvUu3Sk6Hhvaax4nreJGAVWGk1+EvxgUlXTGxKxyHFUaZdjqnNtMc31I8O/oKb/YqeVXV8pm7rxcyTTXh6tWcaKAawmSCXEZlketW+ArL/LhCxwApd+8JOXiY8gyKGz+Pl2xwXi3pPDMtrjJ3aGqh/rjyWklkIErrquXfgGLknB+I27zkcLSm8Ybf+oOfSH1d7XUgYf64xvSWW8VJwog75prRU20jUg8pNOqRj5Hu8L+FKh36B5Yil7iuP3pK94U9e3Kd+8hDHhHtWdrzIvwQdop7e4KqMgN9/ek7YCHpNcTT+5VvTdO6NOZ79VPJF6Ypl0t6QTVg9PaI1VwmQU4UUANvcSRGTrj1hhxl2ZO+ljk8YnsPNgBTFJ81hsqAgBGhU/ygYpkWdF1qMgJpO73Exb/z+MPipIPpXdI57dlr8K6vGf6+w5UZANb3w9oGi4ePu+t25aomODJrHEUD/1ly9aI64odxovbQbUAAAD4np4AlNaWqkinf+BaLiACFh3Onluz/qRc+D0H1XtU3L27uQIATRMeN3GR8kQ4UUDPWE1xZ369W+xIiFHSmFFMIw1zUcElqEj49KD5X05oLxQFMm10bugvwbPEXsIRHaEiG3CiAJfOfBemrbVza0vyXnhI7i8a73AHRpnyvkz6xVImwFuyELbHbU4U8PRRkPzBYi08JwczZGPYvte2UFVmuPrA7GQ2/V2Y/cvW5K8ziywuYLhizxwRdC07YAUAcCljzqSYPfDMf6B8+0whVLYXj4uSJaKPz0JrlhoIMCV+34a4NzswK1oO6gqgLqjlk+Rb/oJuenuhZK1K5m4xOJIOghHT5O/PlM8I9OZoXuUIT9dqeHAkIXyCbMsl6DTIxbvr1+m7X3b0/lUdd/Wnvk9cuEDx8ZacK9ysTdBVwHV11NjX4vfAi/62gp7faP6SCzl62ppJlenm7xkbZwb1nKjccZNZ2XLQVAB55evwMRGpufBRcCdR2M5Df88WObL7nYTz8kmKoiizueIv3cGUuBm+0A7B4SRpRNIZeF+LDRBUAHlxZXhgTAbtjMA3bNlv2vTJAsjkUAjCTSCaKFepj6cr4UZpEyN+ZvlwCDkF3EqWBcdprsFjanCMOjt90ZBWM/bDdJUsmBlocUtVhqLfdFA1C6C1FqjSRIs/zoC6nwDSRN0mhWNcv9lwPkd3yVBmvGUy3Cy7CQKky6X1v9Lt5A0fVwBgMNwCoDPN1CJQUsBldeR7yefhs7XI1KJU6QC2d9pt5U7Wklei9tTJ0T3wbqQ0xRe+AgAArl3V08oEwa5ckRkFKEPmR5/sgF+4G6c6ttFx3Q8A6BI01h86NK/ISf1czVzy3dau3ZpPe3/EV8CuApDxARqV8ido5efiPUQmbl+Yn28xMSCcfQT+Xesd1rGIkzBCNirurNbSwdvlwtu6ZbMk4wYI2j80XMnV7khM3AK7gLaCsPEsbwxz8KYoZTrwoeTzszRbhT6/4Lpl7eXsFzgM2uB85C6e/5MqvK3FYoXmvJNJmTIn956U2cSj9fmHqBWWA2XrNKdVAIA72sXDJMsv1t8GboTX1xXuV9i+X23Lm6Kc+ADTf3U5J639qkeFOTlw2cvn+pM/dG8JpNHosNfArdFRvGxXUkFING1jqjH6Sb9d34TutxFk5gGtliGKH0+kq8ZbH90J5zfidhxNi+7BrGg5zlgCDsepb1jcYcmHJzK27c46dDL/QrG+9A5pBoS7l08XX+GQ4eKQ6TLpMK5Ohnhi0YBV7M4DOKaZIy7HtOZWWZ8HYBeAOlgBqIMVgDpYAaiDFYA6WAGogxWAOlgBqIMVgDpYAahj69kgvOvZesCtajnYB6AOVgDqYAWgjq3zgNZ24lkNbpV1bJmRYB+AOk6UDTLBPMNgH4A6WAGogxWAOlgBqIMVgDpYAajDvgJurwhqz2sSrrwN9A+k7cuj9KgX2tBb9HnjH5RyhvlMxiZl1JujA3y9PVxdeTwX1w7P9/EdGxq+IEmtMzCvZg9b9wSfWe5oF8am0iLK2J/y/C0KuXJ3fjnt03GyokxfUaa/dEyTsTJ+zlvxmzfETfKAL2AH9n3AUwVZsEy53pEOCIC7OWtDgmf+wOh+BmT57vjJIcq9d5kVLQdtH5CfFJ1Mj89gb8iCz+VxefTP2gdLpo8QeD02/pmtOVgIxY3KTZqyXHJ/df2o6C2CfQV0kqfpQkzWb+udnYrQFTk117gJZ412RBCvKv3381YftfaRO/fc127YBEUOBoTLkqzSpeKaMEGUKTdWEpxUe6MAAD+kbl0mng0nHmkx7CsAeAn6ezFtNK5nyLdCv0qRuGYgVGsv7qdGf3Ki9uETiV48m3/O/kd657J/vwcVe4Wlzq/tfgAAjz98kXLG+vDUuqDnN/NPFILZQ+uuYAG7zwMo07FPYzbXJXLoJ904n2W3ZhPXMuYu1tQMvW6iqNhwD4cckJWbbsM94BvwEuP5dhcOewGKNfTYeJHlcIL2V4AmPnrb5Zq/eXz3ONX7HMxvnwBlOvZZzOa6CK1y1TesR+awEU9+J3gZ0tBk0AxL08mjC9thD+2rgMqcxbEpFmc7Vnk4whEzgCMqiwr7STcukbhWmc0OWRC+GDQWzmNRrPudkd6qoqjgv9BUxVsk8bOUWMGuCri2KiapqPb3PCcMV8UwEivZg8r8Lz5aV6NCF++AL5Mc4ITqaC/5aA4UMvRqxuwEbUldkTIVLEuEkpER4H3lv1idBgJOZoKNUZw6Zw00AXwrfs1oLmO1NcLVNYqE87UqDFPtCfemVdsd39jU5Jzg9w5Uh5IiwcoJvX4WTx8p9HpsvJKr/fWcwXLHQlXHYtmPfmovBVCmg0viLHk83ESzFkibmkWXBYqT566qVaGPJCFR7oA2MGgnfHd/Tm+V8tNvM/KMAAAAzml3ntPClzg9Lxodrdr4iaS/bQH3moS9vPDJxEW7oIhpU+NV9l8BUobMmOU1KuTxwZLEz+A8ow7ERTDiTVnEDIlvgw94B8HQNyRTRwl7cJO00y4KoAyZK9blPqotPiecMS+MxdjINvJoV7wlrKg4/vT7jloA0KkyHJgT1H1E+Nz1muIG99Hu6vM2JMwd5+clS4byU7KGXRRwNjVBA218TlQsGmwp2Yk72oULa0+APAJnrVU4YBJaH8qUN08cti7HcijwWkzKib9ukxRVabx6NG35xLo4g2SlOnp0ZOp/GloxtgQ73AYy77sUiwPg8b3fldn96SMLFtedABFgbtKa+tk9HcIxVdS/oV3hEXG/7E2UBwk8nwPAld9trDT+p6yEIZD33xc/7SeWt4S4V8BtzXc7L1uKPSVLJGxvajyRvKToDbUnQAGKA59CCzCHkpeWDm1FE2Bm9KuMuV5b4dxZE+AME+d/1NyC6lsO5wr4Z3/aPvjoa2I46yvaJ3L7UFZe3baKLunV+m+wDE/Ihf/B0oAa++gEa8EYWwil1+nKLMW2PhMGNrA0dXpB2A3upaLCIlY3rzhWAGXK2nPIksuTx/cOccQpQOukylR+j3Y06WbL2ryStCUKte1wrIC72Zm/Qh6gQ0DkKLsPAa0WF76nGzTGPyzLudZQAPTSsnL4oe9AdIVKLccW1bWAP7S/wyr3DQztAhXtxXM+foNHMo0wbSr0ugvQ7lsPYWA3PgDA2N+7veUqtuH5+PXjg9N1jzR542fNrTDGOpk89ms2lBAZgH5+QlYfW25ji5tz86/B+vUPcMgazC0yJTuSaaSRFz8CngrI07KXsJzKoyGIwEkTuu1SWzJfbVW+PkGofduS8vL6LqVSfbm2BACP3y8EeoGADbj1AQUXL9D2MNjOkfO04zxFqfRPt6Safqg/NSPAe3VQ8BCBVxvzzT9yfsvV026gSP7tWw3MFlsClwqgTIYr8OKVcO1OT5yGaSuaty05NyRqx7U6E1mh02Y2mFOwu1j5vYq5XGwxnDplYyk9T25fPp4G1mOQXH00C9r7axACTIxZr81azcFGFqc+gDTDc1secd+V/R/wLNBXEn+wUFGXY+RyWeltkxkQzh4+vX2FQ4YHSaZIp4+zLpHmw5sQIFy5cRvTDIFzjNhCa24VzjGCsQZWAOpgBaAOVgDqYAWgDlYA6mAFoA5WAOpgBaAOVgDq2HouAO96th5wq1oO9gGogxXAJlSrhNlKOlgBqGPrPOCJUrIbrfkc9mkE+wDUwQpAHawA1MEKQB2sANTBCkAdrADUwQpAHc4V8E9JTvrSqOmj/Hw7u7ZzcXXp4vPCiNCpsckZcNx0+7BdVj90RKMsoMVze4axdU+wOVCmP75SRMSrz1uiYgJw03DxpuZiriY9WSVYmJa7iOUvYa1AmeyuuacBznwAZcqNlUyIoXc/jNmgXxzqtdJ+CR7K71UHbMTQ4MoH3FMrwtbm0EIfNAAJEhTzJmdv7M+s4AKTkYRzOXQbJrISo/FxdwdGG7Yr3CjgjnbZAigwAiDaRqh+UMrG9yHun9Ns+EShOlXrkCtyNq3TrP1WwtFnkTA0H+AuCt+V/XVviwFZOFFA5bak5KtQOSrt4qaw6gi+HkHS5fuI0v7hm6vDCzkToDD/zGPJGM6GozpII6SANh6eHS0llOFAAZRh965DFn/bSaJaXtP9NXQNW/5D2mtA0LufYGAvb1cOmtAQpPE+9C17W76Xm6WEMhzc/hvag8eh8FETZbPqxT15PkQ6lWnjGMoEuwDQzrVLG6iIMBw437PZeZa3JQgwJtBu6z1rUEYjnL6jI7/OBTy4ZzIYDOWOTTrmONj3AZVFRZb4YTyiT18fAMCj0pw9O9J/Pa2/dof8x53fSxg0Jlz2jr8dg8o8Is0VUCe7eXiW5qStTly7V3O6hAQAAGeC7xc0Nky+YI40EM788qzDvgLKSkotk4C2PoM6kedWyd5ZmkHfGFBvXBYf8Z7qxFeKoA6wnTuMxnKoVJIWPTQ+7wZkeUSazmkzz2kzU1KjtqZtCq43dD2jsD8KlN6mbbzwksODP2N0PwAAAMoENkePmpJw0D5bQlWmcrhdV4po3Q9zVZsSJok81VB4z2cR9hVAVkCbrw+K9v2/1lpGXa3q1S+h5EPcQZJN2BE05W/9MP7AQ6b5mYR1BZDgUb33d7uL5WnZf5rMVKWx+Od1ioHw8E+CTYlJ7MZLbxCjkZa4DwAwWrHqQOHVexRVaSz+JSVmKH1Skp/6wV4kzhHYnwcAZ/qddhNJf8pKGVwdR47oG6JY5+9jHh5uSTt6XZOiNS2axvGs0FUQPFP+fO0U9WHXwHmfywNqojPy+74qTwz0azcyeHldMjzKVLJfc2uatFUsZLiE0V0thyDc+QBAAdBfV35d0/21dAv77B3R5lX5tWWyJE8HponhS9inmyQ2RcI0wnQIXPpJ6Pr3MyxnGed1px9LQ1j3kq0M9n/f853oZyoDhPUfo77DAzrBZQMU19txOI0OGgTfjxtlxWw/H60Q9hUgeKHPk4953AhP+H9+BFqDAoAbMwuwU116pGcX9hXgNFjkCz86l+nRsau5Z6RlTXAjniwaFiEbWendNMDnWaCDBwo7x+wrgJlN+Ygmvd5mwKUTOtqrA725CppbA2U48H+hE0cGDPT18XTj8Tr6TWlouV95VFsAl32FAzm4Pa0NDn5ie/G00N6W4uW0f31DfxHoesYXO/9jKbp4jxzJcfo5Hr9d5ZnfTuUXXjIY7wPwUL/3y3qJ+65lzF+jpbVzfBDHzWoVcKAAQIyJjhpuWWaSYHH4qC8z/igHAJDlp9SLJsktS0EAQJ9w5RiuY44TY6RT+8G/dZ/Sf0r8lqNFpSbT3TK9bnuCdLxs3RXoAk/xQpkd0ow4Ht7LAcIVrMcWp0x5s4PGb4RyKVbjDABjbuXCd9+kuxspoFutwWve1+OUfmeI6O2DcOI7KxBgRfb9+U1I9F3dqia0x46cOXOGaYLgwgcAwOMP+yotaVy9pFjMqTUBIlMLmtL9zYcnmL5Zrehvi7MhgDy1SNmE7n+q4UYBAIB2otmZh9Xvijwbm067evdbnF7yHf31IU7pJll3NCt5siWPUwN4CgPXZP2dIh3QWLOfObgZBSDMZzJStqTvP55zobis9AHp7OHd2zdgpFjyplz+lsCWJ5JJM0cBiPLcjO3q9EMn8y8U60vvkGZnop2PwE8oGvFKuCwirHkvBzy9owDnCmCdliuAC55eBXA2CmCeErACUAcrAHWwAlDHCSBwAIqxAvYBqIMVgDpYAaiDFYA6WAGoY+vb4vBebOuhdbbq6QL7ANR5sg+wnrscA2P9DKZ1gn0A6mAFoA5WAOpgBaCOE15OIQ72AajjBPDxMNpgH4A6WAGow5s41K8cuDLNGGTAPgB1/gcdrJq/kCqT2gAAAABJRU5ErkJggg==;" vertex="1" parent="1">
          <mxGeometry x="290" y="470" width="171" height="174" as="geometry" />
        </mxCell>
      </root>
    </mxGraphModel>
  </diagram>
</mxfile>
